# xmcd CD database file
#
# Track frame offsets:
#	150
#	12797
#	26079
#	39120
#	53104
#	68333
#	81368
#	94920
#	109392
#	122260
#	135291
#	149105
#
# Disc length: 2216 seconds
#
# Revision: 0
# Processed by: cddbd v1.5.1PL0 Copyright (c) Steve Scherf et al.
# Submitted via: CDex 1.51
#
DISCID=9708a60c
DTITLE=Billie Holiday - A Collection
DYEAR=1997
DGENRE=Jazz
TTITLE0=A Fine Romance
TTITLE1=All of Me
TTITLE2=God Bless the Child
TTITLE3=I'll Get By
TTITLE4=I'm a Fool to Want You
TTITLE5=I Cover the Waterfront
TTITLE6=Night and Day
TTITLE7=Solitude
TTITLE8=St. Louis Blues
TTITLE9=Summertime
TTITLE10=The Man I Love
TTITLE11=You Don't Know What Love Is
EXTD=YEAR: 1997
EXTT0=
EXTT1=
EXTT2=
EXTT3=
EXTT4=
EXTT5=
EXTT6=
EXTT7=
EXTT8=
EXTT9=
EXTT10=
EXTT11=
PLAYORDER=
